<svg width="25" height="26" viewBox="0 0 25 26" fill="none" xmlns="http://www.w3.org/2000/svg">
<path d="M13.609 26C12.9113 25.9995 12.2146 25.9485 11.5246 25.8472C8.50325 25.3819 5.72971 23.9422 3.6485 21.7588C1.56728 19.5755 0.29888 16.7749 0.046559 13.8059C-0.205762 10.8369 0.572605 7.87128 2.25692 5.3844C3.94124 2.89752 6.434 1.03331 9.33573 0.0905063C9.64631 -0.011794 9.98004 -0.0277224 10.2994 0.0445108C10.6188 0.116744 10.9111 0.274277 11.1436 0.499412C11.3957 0.738381 11.5746 1.04088 11.6603 1.37314C11.7461 1.70539 11.7353 2.05432 11.6292 2.38096C11.2304 3.64297 11.0521 4.96128 11.1018 6.28084C11.215 8.35033 11.8749 10.3563 13.0178 12.1044C14.1607 13.8526 15.7477 15.2836 17.6252 16.259C19.3159 17.1952 21.2252 17.6927 23.17 17.704C23.5086 17.7086 23.8395 17.8033 24.1268 17.9779C24.4141 18.1526 24.6469 18.4004 24.7998 18.6947C24.9528 18.9889 25.0202 19.3184 24.9947 19.6473C24.9692 19.9762 24.8518 20.292 24.6552 20.5605C23.3831 22.2495 21.7197 23.6224 19.8004 24.5675C17.881 25.5127 15.7597 26.0034 13.609 26ZM9.9035 1.45547C9.87044 1.45553 9.83763 1.46094 9.80638 1.47147C7.98996 2.05854 6.3415 3.05495 4.99512 4.37963C3.64874 5.70431 2.64248 7.31985 2.05822 9.09479C1.47395 10.8697 1.32818 12.7539 1.63277 14.5941C1.93736 16.4343 2.6837 18.1784 3.81107 19.6846C4.93844 21.1908 6.41499 22.4166 8.12059 23.2621C9.82619 24.1076 11.7126 24.549 13.6265 24.5504C15.5403 24.5518 17.4274 24.1132 19.1343 23.2702C20.8412 22.4272 22.3197 21.2036 23.4494 19.6991C23.4856 19.6497 23.5066 19.5914 23.51 19.5308C23.5134 19.4703 23.4992 19.41 23.4688 19.3571C23.4421 19.299 23.399 19.2496 23.3445 19.2145C23.29 19.1795 23.2263 19.1603 23.161 19.1592C20.9671 19.147 18.8128 18.5879 16.9036 17.5352C14.7992 16.4381 13.0217 14.8299 11.7434 12.8668C10.4651 10.9036 9.72937 8.65196 9.60766 6.33032C9.55394 4.84896 9.75596 3.36934 10.2053 1.95314C10.2275 1.88132 10.2297 1.80504 10.2116 1.73215C10.1934 1.65925 10.1557 1.59238 10.1022 1.53841C10.0768 1.51195 10.046 1.49091 10.0118 1.47663C9.97759 1.46236 9.94072 1.45515 9.9035 1.45547Z" fill="black"/>
</svg>
