<svg width="29" height="26" viewBox="0 0 29 26" fill="none" xmlns="http://www.w3.org/2000/svg">
<path d="M14.2199 25.6563C14.0235 25.6557 13.8329 25.59 13.6777 25.4696C8.73549 21.6296 5.33105 18.3229 2.94882 15.0607C-0.091177 10.8918 -0.784511 7.04293 0.886601 3.62071C2.07771 1.17626 5.49993 -0.823735 9.49993 0.340709C11.4071 0.891588 13.071 2.07296 14.2199 3.69182C15.3688 2.07296 17.0328 0.891588 18.9399 0.340709C22.931 -0.805957 26.3622 1.17626 27.5533 3.62071C29.2244 7.04293 28.531 10.8918 25.491 15.0607C23.1088 18.3229 19.7044 21.6296 14.7622 25.4696C14.607 25.59 14.4163 25.6557 14.2199 25.6563ZM7.22438 1.7896C6.2726 1.75256 5.32871 1.97542 4.49402 2.43426C3.65933 2.89311 2.96536 3.57061 2.4866 4.39404C1.10882 7.22071 1.73104 10.3674 4.38882 14.0029C7.21225 17.6471 10.5198 20.8888 14.2199 23.6385C17.9195 20.8916 21.227 17.6528 24.051 14.0118C26.7177 10.3674 27.331 7.22071 25.9533 4.40293C25.0644 2.62515 22.3977 1.21182 19.4288 2.04738C18.4769 2.32871 17.5943 2.80624 16.8381 3.44922C16.0818 4.09221 15.4685 4.88641 15.0377 5.78071C14.9707 5.94374 14.8568 6.08318 14.7104 6.18132C14.564 6.27945 14.3917 6.33185 14.2155 6.33185C14.0392 6.33185 13.867 6.27945 13.7206 6.18132C13.5742 6.08318 13.4602 5.94374 13.3933 5.78071C12.9657 4.88417 12.3535 4.08811 11.5967 3.44473C10.84 2.80134 9.95581 2.32515 9.00216 2.04738C8.42438 1.87944 7.82606 1.79269 7.22438 1.7896Z" fill="black"/>
</svg>
