<svg width="29" height="26" viewBox="0 0 29 26" fill="none" xmlns="http://www.w3.org/2000/svg">
<path d="M16.7293 0.831462C16.7297 0.619854 16.8243 0.4171 16.9922 0.267808C17.1601 0.118516 17.3875 0.0349135 17.6245 0.0353908L27.1567 0.0545865C27.3937 0.0550638 27.6208 0.139582 27.7881 0.289549C27.9554 0.439516 28.0492 0.642649 28.0487 0.854257L28.0016 24.2585C28.0012 24.4701 27.9066 24.6728 27.7387 24.8221C27.5708 24.9714 27.3434 25.055 27.1064 25.0545L17.5742 25.0353C17.3372 25.0349 17.1101 24.9503 16.9428 24.8004C16.7755 24.6504 16.6817 24.4473 16.6822 24.2357C16.6826 24.0241 16.7771 23.8213 16.945 23.672C17.1129 23.5227 17.3404 23.4391 17.5774 23.4396L26.2159 23.457L26.2599 1.64853L17.6213 1.63113C17.3843 1.63066 17.1572 1.54614 16.9899 1.39617C16.8226 1.2462 16.7289 1.04307 16.7293 0.831462ZM0.28544 13.0643L6.23233 18.3955C6.40145 18.5367 6.62536 18.6139 6.85688 18.6107C7.0884 18.6076 7.30946 18.5243 7.47349 18.3784C7.63751 18.2326 7.73169 18.0355 7.7362 17.8288C7.7407 17.6221 7.65516 17.4219 7.49762 17.2704L3.07462 13.304L17.5978 13.3332C17.8348 13.3337 18.0622 13.2501 18.2301 13.1008C18.398 12.9515 18.4926 12.7488 18.493 12.5372C18.4934 12.3256 18.3997 12.1224 18.2324 11.9725C18.0651 11.8225 17.838 11.738 17.601 11.7375L3.07783 11.7082L7.51677 7.75973C7.60471 7.68687 7.67531 7.59892 7.72435 7.50115C7.77339 7.40338 7.79987 7.29777 7.8022 7.19065C7.80453 7.08352 7.78267 6.97707 7.73793 6.87763C7.69318 6.77819 7.62647 6.6878 7.54176 6.61187C7.45706 6.53593 7.35609 6.476 7.2449 6.43565C7.13371 6.3953 7.01456 6.37535 6.89457 6.377C6.77458 6.37865 6.65619 6.40186 6.54649 6.44524C6.43678 6.48863 6.33799 6.55131 6.25603 6.62953L0.287711 11.9367C0.120059 12.0859 0.0256548 12.2885 0.025229 12.5C0.0248032 12.7114 0.118391 12.9144 0.28544 13.0643Z" fill="black"/>
</svg>
