<svg width="27" height="27" viewBox="0 0 27 27" fill="none" xmlns="http://www.w3.org/2000/svg">
<path fill-rule="evenodd" clip-rule="evenodd" d="M13.3333 15.3334C14.7478 15.3334 16.1044 14.7715 17.1046 13.7713C18.1048 12.7711 18.6667 11.4145 18.6667 10C18.6667 8.58553 18.1048 7.22898 17.1046 6.22878C16.1044 5.22859 14.7478 4.66669 13.3333 4.66669C11.9188 4.66669 10.5623 5.22859 9.5621 6.22878C8.5619 7.22898 8 8.58553 8 10C8 11.4145 8.5619 12.7711 9.5621 13.7713C10.5623 14.7715 11.9188 15.3334 13.3333 15.3334ZM13.3333 14C13.8586 14 14.3788 13.8966 14.8641 13.6955C15.3494 13.4945 15.7903 13.1999 16.1618 12.8284C16.5332 12.457 16.8278 12.0161 17.0289 11.5308C17.2299 11.0455 17.3333 10.5253 17.3333 10C17.3333 9.47473 17.2299 8.95459 17.0289 8.46929C16.8278 7.98398 16.5332 7.54303 16.1618 7.17159C15.7903 6.80016 15.3494 6.50552 14.8641 6.3045C14.3788 6.10348 13.8586 6.00002 13.3333 6.00002C12.2725 6.00002 11.2551 6.42145 10.5049 7.17159C9.75476 7.92174 9.33333 8.93915 9.33333 10C9.33333 11.0609 9.75476 12.0783 10.5049 12.8284C11.2551 13.5786 12.2725 14 13.3333 14Z" fill="black"/>
<path fill-rule="evenodd" clip-rule="evenodd" d="M26.6667 13.3333C26.6667 20.6973 20.6973 26.6667 13.3333 26.6667C5.96933 26.6667 0 20.6973 0 13.3333C0 5.96933 5.96933 0 13.3333 0C20.6973 0 26.6667 5.96933 26.6667 13.3333ZM19.7533 23.4733C17.8342 24.6922 15.6068 25.3375 13.3333 25.3333C11.0056 25.3376 8.72738 24.6609 6.77933 23.3867C6.61933 23.1867 6.45711 22.98 6.29267 22.7667C6.10194 22.5168 5.99905 22.211 6 21.8967C6 21.1787 6.516 20.5767 7.206 20.476C11.7693 19.8093 14.9113 19.8667 19.4807 20.4993C19.8114 20.5477 20.1135 20.7139 20.3315 20.9673C20.5494 21.2208 20.6684 21.5444 20.6667 21.8787C20.6667 22.1987 20.5567 22.5093 20.358 22.752C20.1531 23.0013 19.9516 23.2418 19.7533 23.4733ZM21.99 21.644C21.8833 20.396 20.936 19.3547 19.6633 19.1787C14.986 18.5313 11.7167 18.4693 7.01333 19.1567C5.73333 19.3433 4.79 20.394 4.678 21.6453C2.52822 19.4127 1.3291 16.4327 1.33333 13.3333C1.33333 6.706 6.706 1.33333 13.3333 1.33333C19.9607 1.33333 25.3333 6.706 25.3333 13.3333C25.3376 16.4321 24.139 19.4115 21.99 21.644Z" fill="black"/>
</svg>
