<svg width="32" height="32" viewBox="0 0 32 32" fill="none" xmlns="http://www.w3.org/2000/svg">
<path fill-rule="evenodd" clip-rule="evenodd" d="M18.6667 4V5.6H5.6V26.4H26.4V13.3333H28V26.6667C28 27.0203 27.8595 27.3594 27.6095 27.6095C27.3594 27.8595 27.0203 28 26.6667 28H5.33333C4.97971 28 4.64057 27.8595 4.39052 27.6095C4.14048 27.3594 4 27.0203 4 26.6667V5.33334C4 4.97972 4.14048 4.64058 4.39052 4.39053C4.64057 4.14048 4.97971 4 5.33333 4H18.6667ZM26.48 3.66134C26.605 3.53676 26.7742 3.46681 26.9507 3.46681C27.1271 3.46681 27.2964 3.53676 27.4213 3.66134L28.3627 4.60134C28.4872 4.7263 28.5572 4.89555 28.5572 5.072C28.5572 5.24845 28.4872 5.41771 28.3627 5.54267L15.6827 18.2227L12.5933 19.9493C12.5171 19.9912 12.4294 20.0072 12.3433 19.9947C12.2572 19.9822 12.1776 19.9421 12.1164 19.8803C12.0552 19.8185 12.0158 19.7384 12.0042 19.6523C11.9926 19.5661 12.0094 19.4785 12.052 19.4027L13.8013 16.3413L26.48 3.66134Z" fill="black"/>
</svg>
